name C:\Users\Nicos\Documents\OpenSimProjects\SprintingProject\Study1\PredictiveResults\IC_pred_Sprinting_optimum_27-October-2023__18-13-56___HTD_Plus_2_p02_maxVel_01.mot
datacolumns 38
datarows 10
range 0.05600000 0.06500129
endheader
                time	/jointset/ground_pelvis/pelvis_tilt/value	/jointset/ground_pelvis/pelvis_list/value	/jointset/ground_pelvis/pelvis_rotation/value	/jointset/ground_pelvis/pelvis_tx/value	/jointset/ground_pelvis/pelvis_ty/value	/jointset/ground_pelvis/pelvis_tz/value	/jointset/hip_r/hip_flexion_r/value	/jointset/hip_r/hip_adduction_r/value	/jointset/hip_r/hip_rotation_r/value	/jointset/knee_r/knee_angle_r/value	/jointset/ankle_r/ankle_angle_r/value	/jointset/subtalar_r/subtalar_angle_r/value	/jointset/mtp_r/mtp_angle_r/value	/jointset/hip_l/hip_flexion_l/value	/jointset/hip_l/hip_adduction_l/value	/jointset/hip_l/hip_rotation_l/value	/jointset/knee_l/knee_angle_l/value	/jointset/ankle_l/ankle_angle_l/value	/jointset/subtalar_l/subtalar_angle_l/value	/jointset/mtp_l/mtp_angle_l/value	/jointset/back/lumbar_extension/value	/jointset/back/lumbar_bending/value	/jointset/back/lumbar_rotation/value	/jointset/acromial_r/arm_flex_r/value	/jointset/acromial_r/arm_add_r/value	/jointset/acromial_r/arm_rot_r/value	/jointset/elbow_r/elbow_flex_r/value	/jointset/radioulnar_r/pro_sup_r/value	/jointset/radius_hand_r/wrist_flex_r/value	/jointset/radius_hand_r/wrist_dev_r/value	/jointset/acromial_l/arm_flex_l/value	/jointset/acromial_l/arm_add_l/value	/jointset/acromial_l/arm_rot_l/value	/jointset/elbow_l/elbow_flex_l/value	/jointset/radioulnar_l/pro_sup_l/value	/jointset/radius_hand_l/wrist_flex_l/value	/jointset/radius_hand_l/wrist_dev_l/value	
          0.05600000	         -6.75438305	         -5.94192300	         -1.66667503	         -0.00000000	          0.99683358	          0.30213563	         36.14558562	          4.74519423	         -0.83418643	        -19.38245851	        -26.66866882	        -18.12857343	          0.31915572	         19.92885076	        -12.26602427	          3.44195010	       -118.53295335	        -10.01180573	        -17.62532126	         -3.54915524	        -18.67003714	          9.54466410	         -5.47484550	         -6.09382435	        -26.17712237	        -14.76754570	         90.26646814	         73.54219601	        -23.37888158	          5.25382492	         -0.45028247	        -24.53142948	        -14.99352047	         73.51448878	         54.95156273	          0.38633731	          5.09858191	
          0.05664762	         -6.86037909	         -5.90363744	         -1.97633826	          0.00766741	          0.99641100	          0.30236851	         35.85041628	          4.85867605	         -0.89589380	        -19.14283840	        -26.11796316	        -17.62723507	          0.66809731	         20.37034852	        -12.28288575	          3.29623278	       -118.92042724	         -9.83499004	        -17.67417526	         -3.33972370	        -18.55469604	          9.47535265	         -5.27050853	         -5.14273414	        -26.16450891	        -14.71631438	         90.45078950	         73.81785793	        -23.29317226	          5.23887267	         -0.95996185	        -24.37871712	        -14.99920356	         73.22949325	         54.95413046	          0.30732331	          5.11140168	
          0.05869384	         -7.20130604	         -5.76463099	         -2.97668229	          0.03190353	          0.99498607	          0.30310998	         34.91555307	          5.20472262	         -1.02523219	        -18.42134583	        -24.25074425	        -16.14653131	          1.66715532	         21.78019625	        -12.34576858	          2.82265970	       -120.13088588	         -9.28259081	        -17.82575826	         -2.86452489	        -18.17506751	          9.24296536	         -4.59411351	         -2.11856593	        -26.12376654	        -14.51867777	         90.97402612	         74.86307642	        -22.99584173	          5.22655724	         -2.55975096	        -23.87597732	        -14.99999875	         72.40230708	         54.86948816	          0.04307802	          5.17564639	
          0.06017683	         -7.45285699	         -5.64656574	         -3.72075026	          0.04947937	          0.99386909	          0.30365057	         34.23522081	          5.44155649	         -1.04746820	        -17.93646175	        -22.80682745	        -15.18586328	          2.32863955	         22.81528690	        -12.40119687	          2.46859233	       -120.99448963	         -8.88983824	        -17.93433630	         -2.69633238	        -17.88630660	          9.06284476	         -4.07533362	          0.08499892	        -26.09479383	        -14.34267499	         91.30619929	         75.70751909	        -22.76860338	          5.23163284	         -3.71221870	        -23.49318339	        -14.99313911	         71.87241422	         54.77489097	         -0.15150168	          5.24656004	
          0.06017683	         -7.45285699	         -5.64656574	         -3.72075026	          0.04947937	          0.99386909	          0.30365057	         34.23522081	          5.44155649	         -1.04746820	        -17.93646175	        -22.80682745	        -15.18586328	          2.32863955	         22.81528690	        -12.40119687	          2.46859233	       -120.99448963	         -8.88983824	        -17.93433630	         -2.69633238	        -17.88630660	          9.06284476	         -4.07533362	          0.08499892	        -26.09479383	        -14.34267499	         91.30619929	         75.70751909	        -22.76860338	          5.23163284	         -3.71221870	        -23.49318339	        -14.99313911	         71.87241422	         54.77489097	         -0.15150168	          5.24656004	
          0.06082445	         -7.56354654	         -5.59040034	         -4.05033713	          0.05715796	          0.99335945	          0.30388701	         33.93722726	          5.54075554	         -1.03621989	        -17.73614591	        -22.15829559	        -14.79813487	          2.58247673	         23.27052255	        -12.42821795	          2.31141696	       -121.36784389	         -8.72049934	        -17.98179896	         -2.66991136	        -17.75684780	          8.98132806	         -3.84130782	          1.04871042	        -26.08251001	        -14.25804731	         91.44095502	         76.08359019	        -22.66829190	          5.23128890	         -4.21435631	        -23.32136802	        -14.99041128	         71.65936532	         54.74516900	         -0.23568610	          5.28474129	
          0.06287068	         -7.91463025	         -5.39257059	         -5.10605083	          0.08143383	          0.99166343	          0.30462924	         32.99026260	          5.83146521	         -0.90832504	        -17.15115371	        -20.04807539	        -13.68136692	          3.30380438	         24.72099061	        -12.52201705	          1.80814611	       -122.53174337	         -8.19543713	        -18.13122520	         -2.75651023	        -17.33548152	          8.71213169	         -3.07506095	          4.09183471	        -26.04214343	        -13.97423762	         91.83869023	         77.23351835	        -22.34984203	          5.22559395	         -5.79828940	        -22.75782229	        -14.99889377	         71.05954014	         54.77212271	         -0.51227374	          5.43776825	
          0.06435366	         -8.16573685	         -5.22990649	         -5.88217648	          0.09904445	          0.99035936	          0.30515959	         32.29469000	          6.01646693	         -0.73090998	        -16.77971233	        -18.47217639	        -12.95851290	          3.88332358	         25.77869718	        -12.59815038	          1.43854438	       -123.35890190	         -7.82810193	        -18.24303857	         -2.85202633	        -17.02293105	          8.50640928	         -2.49401369	          6.28853283	        -26.01001419	        -13.76698450	         92.11185094	         78.01857093	        -22.11860603	          5.22001964	         -6.94405829	        -22.34006073	        -14.99999699	         70.69443871	         54.90639907	         -0.72266502	          5.57942655	
          0.06435366	         -8.16573685	         -5.22990649	         -5.88217648	          0.09904445	          0.99035936	          0.30515959	         32.29469000	          6.01646693	         -0.73090998	        -16.77971233	        -18.47217639	        -12.95851290	          3.88332358	         25.77869718	        -12.59815038	          1.43854438	       -123.35890190	         -7.82810193	        -18.24303857	         -2.85202633	        -17.02293105	          8.50640928	         -2.49401369	          6.28853283	        -26.01001419	        -13.76698450	         92.11185094	         78.01857093	        -22.11860603	          5.22001964	         -6.94405829	        -22.34006073	        -14.99999699	         70.69443871	         54.90639907	         -0.72266502	          5.57942655	
          0.06500129	         -8.27345990	         -5.15401676	         -6.22330201	          0.10674011	          0.98977182	          0.30538851	         31.98760468	          6.08961636	         -0.63235323	        -16.63326166	        -17.77700783	        -12.66436636	          4.15731267	         26.24121767	        -12.63375842	          1.27636879	       -123.71548717	         -7.67176635	        -18.29351980	         -2.87572378	        -16.88562048	          8.41405692	         -2.23346454	          7.24375437	        -25.99491114	        -13.67961999	         92.23001446	         78.34810535	        -22.01767612	          5.21763304	         -7.44399742	        -22.15754658	        -14.99437295	         70.55335292	         54.99425324	         -0.81675104	          5.64862375	
